<?xml version="1.0" encoding="UTF-8"?>
<svg id="_レイヤー_1" data-name="レイヤー 1" xmlns="http://www.w3.org/2000/svg" viewBox="0 0 315.12 34.07">
  <defs>
    <style>
      .cls-1 {
        fill: #131d3d;
      }
    </style>
  </defs>
  <path class="cls-1" d="M.52,30.14c.19-.13.36-.19.51-.19.46,0,.98.26,1.56.79.1.09.17.15.22.19l.08.08c.24.2.49.3.74.3.38,0,.75-.13,1.13-.39s.68-.62.91-1.07c.31-.63.53-1.35.68-2.14.14-.79.22-1.76.22-2.89v-2.32s.01-1.59.01-1.59c0-1.08-.04-2.75-.12-5l-.09-5.57v-2.87c.02-.26-.02-.48-.12-.67-.06-.1-.17-.19-.32-.27s-.38-.12-.66-.13l-1.1-.07c-.35,0-.59-.03-.71-.1-.04-.15-.06-.26-.06-.34v-.18c.23,0,.5,0,.82.03.62.03,1.22.04,1.8.04.28,0,.65,0,1.1-.01.35-.02.59-.03.73-.03h2.19c.31,0,.64.01,1,.04,0,.23,0,.41-.03.54-.85.04-1.39.1-1.62.18-.23.08-.4.19-.51.33-.07.09-.1.26-.1.52l-.06,1.55v.37c.03.18.04.52.04,1.03v.6c0,.35,0,.66.01.92.02.4.03.64.03.71,0,.09,0,.32-.03.7,0,.11-.01.2-.01.28l.18,4.14-.03,2.67v1.73c0,.99-.19,2.38-.57,4.16-.28,1.29-.78,2.46-1.5,3.52-.73,1.06-1.44,1.78-2.14,2.17-.71.39-1.64.58-2.81.58-.63,0-1.13-.15-1.5-.45-.26-.21-.39-.49-.39-.83,0-.42.18-.75.54-1.01Z"/>
  <path class="cls-1" d="M30.38,6.49c.12.76.18,1.55.18,2.35,0,.16,0,.37-.01.64-.14.03-.24.04-.31.04-.06,0-.14,0-.25-.03-.42-1.16-1.1-2.06-2.04-2.68s-2.11-.94-3.5-.94c-.74,0-1.36.08-1.86.25-.89.31-1.68.73-2.35,1.27-.67.54-1.25,1.19-1.71,1.94-.47.75-.84,1.66-1.11,2.73-.27,1.07-.41,2.16-.41,3.27,0,2.12.32,3.88.97,5.26.64,1.38,1.53,2.37,2.65,2.96,1.12.59,2.25.89,3.4.89h.7c.79-.11,1.33-.21,1.62-.3.72-.21,1.32-.45,1.79-.74.47-.28.93-.68,1.38-1.2.45-.52.84-1.12,1.15-1.8l.18-.06s.12.03.22.09c0,.24-.02.39-.03.46-.42,1.68-.72,2.82-.91,3.44-.16.04-.36.1-.6.18-1.16.4-2.72.6-4.66.6-1.57,0-2.74-.11-3.52-.32-.78-.21-1.63-.54-2.55-1-.92-.45-1.72-1.05-2.42-1.79-.7-.74-1.26-1.68-1.68-2.82s-.64-2.38-.64-3.72c0-1.27.17-2.38.51-3.33.34-.95.86-1.91,1.56-2.88s1.54-1.78,2.49-2.43c.96-.65,2.02-1.1,3.19-1.37.82-.18,1.99-.27,3.5-.27,1.1,0,2.14.15,3.11.44.97.29,1.62.58,1.95.86Z"/>
  <path class="cls-1" d="M32.85,24.49c.1-.09.18-.14.25-.16.17-.05.46-.09.86-.12.96-.06,1.56-.15,1.79-.27.14-.2.21-.48.21-.83v-1.04s0-3.79,0-3.79l-.03-1.79v-3.74s-.06-4.25-.06-4.25c-.01-1.01-.08-1.59-.19-1.72-.18-.19-.71-.3-1.59-.33-.38,0-.71-.04-1-.09-.13-.07-.19-.16-.19-.27,0-.08.02-.17.07-.28.09-.05.17-.07.24-.07.14,0,.31,0,.51.01.58.06,1.19.09,1.82.09l1.1-.03,2.62.06c1.31,0,2.33-.01,3.07-.04.74-.03,1.23-.04,1.49-.04.23,0,.79.02,1.7.06h2.11s.25.03.25.03l1.24-.04.15.07c.05.08.08.16.1.25,0,.14-.02.35-.07.64-.04.29-.07.47-.07.54,0,1.03.03,1.91.1,2.62,0,.06-.04.1-.09.12-.11,0-.21-.02-.29-.04-.11-.19-.26-.52-.44-1-.18-.48-.46-1.03-.83-1.65-.25-.42-.44-.67-.58-.74-.14-.08-.43-.12-.86-.12-.09,0-.54,0-1.36-.03-.22,0-.43-.02-.64-.02l-4.25.09h-.37c-.55,0-.87.07-.98.21-.17.24-.25.94-.25,2.1,0,.12.02,1.31.07,3.57v2.07c.11.03.23.04.36.04h.25c.17,0,.42,0,.75.02.52.02.86.03,1.04.03.12,0,.22,0,.31-.02,1.07-.04,2.45-.06,4.14-.06.53-.09.83-.19.92-.31.15-.18.26-.65.33-1.4s.24-1.18.5-1.28c.13,0,.25.02.36.07.02.08.03.15.03.22s0,.18-.03.34c-.05.37-.08,1.52-.08,3.45,0,.52.03,1.09.08,1.73s.08.98.08,1.03c0,.09-.01.21-.04.36-.08.04-.14.06-.19.06h-.1c-.16-.28-.31-.71-.46-1.3-.26-1-.53-1.63-.81-1.88-.28-.25-.74-.38-1.38-.38-.14,0-.39,0-.76.02-.37.01-.91.02-1.64.02h-.97c-1.38,0-2.28.03-2.71.09l-.02.49.02,2.74-.02,1.73.02,1.69c0,1.01.07,1.6.19,1.76.17.22.54.33,1.1.33l.91-.02c.08,0,.39,0,.93.02.54.01,1.21.02,2,.02,1.92,0,3.19-.08,3.83-.25.64-.16,1.16-.46,1.57-.88s.93-1.32,1.56-2.7c.19-.41.38-.61.57-.61.09,0,.19.04.3.12-.29.98-.45,1.63-.49,1.94-.11.7-.17,1.4-.19,2.13,0,.33-.08.6-.24.82h-.33l-4.18.04h-1.88s-4.47.04-4.47.04h-1.82c-.23,0-.44,0-.64.02-1.79.08-3.1.12-3.95.12-.15,0-.25-.02-.3-.07-.05-.05-.08-.12-.08-.22v-.14Z"/>
  <path class="cls-1" d="M77.39,6.49c.12.76.18,1.55.18,2.35,0,.16,0,.37-.01.64-.14.03-.24.04-.31.04-.06,0-.14,0-.25-.03-.42-1.16-1.1-2.06-2.04-2.68s-2.11-.94-3.5-.94c-.74,0-1.36.08-1.86.25-.89.31-1.68.73-2.35,1.27-.67.54-1.25,1.19-1.71,1.94-.47.75-.84,1.66-1.11,2.73-.27,1.07-.41,2.16-.41,3.27,0,2.12.32,3.88.97,5.26.64,1.38,1.53,2.37,2.65,2.96,1.12.59,2.25.89,3.4.89h.7c.79-.11,1.33-.21,1.62-.3.72-.21,1.32-.45,1.79-.74.47-.28.93-.68,1.38-1.2.45-.52.84-1.12,1.15-1.8l.18-.06s.12.03.22.09c0,.24-.02.39-.03.46-.42,1.68-.72,2.82-.91,3.44-.16.04-.36.1-.6.18-1.16.4-2.72.6-4.66.6-1.57,0-2.74-.11-3.52-.32-.78-.21-1.63-.54-2.55-1-.92-.45-1.72-1.05-2.42-1.79-.7-.74-1.26-1.68-1.68-2.82s-.64-2.38-.64-3.72c0-1.27.17-2.38.51-3.33.34-.95.86-1.91,1.56-2.88s1.54-1.78,2.49-2.43c.96-.65,2.02-1.1,3.19-1.37.82-.18,1.99-.27,3.5-.27,1.1,0,2.14.15,3.11.44.97.29,1.62.58,1.95.86Z"/>
  <path class="cls-1" d="M80.21,18.73c0-.67.14-1.4.42-2.17.28-.77.71-1.46,1.29-2.07.58-.61,1.19-1.06,1.83-1.36.9-.42,2-.63,3.31-.63,1.86,0,3.41.64,4.65,1.91,1.25,1.27,1.87,2.8,1.87,4.59,0,1.59-.65,3.01-1.96,4.25-1.31,1.25-2.96,1.87-4.95,1.87-1.23,0-2.39-.32-3.48-.97-.81-.49-1.51-1.21-2.1-2.16-.59-.95-.88-2.04-.88-3.26ZM86.79,24.54c.76,0,1.48-.2,2.19-.61.7-.41,1.26-1.06,1.68-1.96.42-.9.63-1.94.63-3.12,0-.77-.16-1.67-.49-2.69s-.82-1.79-1.49-2.3c-.67-.51-1.46-.77-2.36-.77-.66,0-1.33.15-2.01.46-.68.31-1.26.9-1.73,1.77-.47.87-.71,2.11-.71,3.72,0,1.81.41,3.18,1.23,4.1s1.84,1.39,3.07,1.39Z"/>
  <path class="cls-1" d="M95.45,6.27v-.33c.28-.09.58-.18.92-.28.5-.16,1.24-.4,2.22-.73h.7v.82c0,8.16-.03,13.02-.07,14.59-.03.92-.04,1.42-.04,1.48,0,1.11.04,1.73.13,1.86.12.18.48.3,1.09.37.61.07.97.14,1.08.21.08.04.12.11.12.21,0,.11-.02.19-.07.23s-.13.07-.25.07c-.07,0-.59-.02-1.56-.05l-1.95-.07-2.5.12c-.16,0-.28-.02-.36-.09-.06-.05-.09-.12-.09-.21,0-.1.03-.18.1-.22s.42-.12,1.07-.23c.65-.11,1.02-.2,1.12-.28.09-.07.16-.24.19-.5.04-.36.06-1.37.06-3.02l-.02-3.42.04-3.54v-3.54s.03-1.74.03-1.74c0-.35-.05-.6-.16-.75s-.34-.31-.7-.45c-.54-.22-.9-.38-1.1-.48Z"/>
  <path class="cls-1" d="M102.75,18.73c0-.67.14-1.4.42-2.17s.71-1.46,1.29-2.07c.58-.61,1.19-1.06,1.83-1.36.9-.42,2-.63,3.31-.63,1.86,0,3.41.64,4.65,1.91,1.25,1.27,1.87,2.8,1.87,4.59,0,1.59-.65,3.01-1.96,4.25-1.31,1.25-2.96,1.87-4.95,1.87-1.23,0-2.39-.32-3.48-.97-.81-.49-1.51-1.21-2.1-2.16s-.88-2.04-.88-3.26ZM109.34,24.54c.76,0,1.48-.2,2.18-.61.7-.41,1.26-1.06,1.68-1.96.42-.9.63-1.94.63-3.12,0-.77-.16-1.67-.48-2.69s-.82-1.79-1.49-2.3c-.67-.51-1.46-.77-2.36-.77-.66,0-1.32.15-2.01.46s-1.26.9-1.73,1.77c-.47.87-.71,2.11-.71,3.72,0,1.81.41,3.18,1.23,4.1s1.84,1.39,3.07,1.39Z"/>
  <path class="cls-1" d="M117.83,24.76l-.06-.19c0-.07.04-.17.13-.31l.88-.18,1.24-.22c.1-.05.17-.12.21-.21.06-.13.09-.51.09-1.14,0-3.37-.02-5.32-.06-5.84-.04-.52-.13-.85-.27-.99-.14-.14-.5-.25-1.07-.33-.34-.05-.61-.11-.8-.19l.06-.45c1.04-.43,1.74-.8,2.1-1.1.5-.45.92-1.04,1.27-1.76h.51c.06.51.09,1.61.09,3.32v.25c-.01.06,0,.15.02.28.38-.69.85-1.32,1.41-1.89l.34-.34c.14-.16.27-.28.4-.37.69-.42,1.21-.63,1.55-.63.44,0,.79.15,1.07.44.28.29.42.65.42,1.08,0,.34-.1.6-.3.79-.27.25-.58.37-.92.37-.16,0-.47-.08-.94-.25s-.77-.25-.92-.25c-.28,0-.47.04-.58.13-.28.22-.62.67-1.01,1.34-.31.51-.46.97-.46,1.4l.07,2.46.03,2.96c.03.34.07.56.12.66.04.07.14.15.3.25,1.07.09,1.71.15,1.91.19.14.01.24.02.31.03.43.01.72.07.89.18.09.05.13.12.13.22,0,.06-.04.14-.12.24l-1.65-.03h-.63s-.91,0-.91,0h-1.52l-.82.04-2.5.04Z"/>
  <path class="cls-1" d="M135.23,24.36c.31-.21.86-.36,1.67-.45.63-.03,1-.08,1.12-.16.08-.06.14-.13.18-.22.15-.37.26-1.36.33-2.98.09-2.11.24-4.93.44-8.44.16-2.68.24-4.35.24-5.02v-.39c-.72-.15-1.85-.31-3.41-.48-.1-.15-.15-.26-.15-.34,0-.05.04-.14.1-.27.17-.06.3-.09.39-.09.08,0,.25.02.52.06.49.07,1.15.1,2.01.1.28,0,.75-.02,1.43-.07.48-.03.74-.05.8-.05.16,0,.34.03.55.09.1.1.18.2.23.29l.62,1.4,4.21,9.32,1.76,3.91c1.38-2.73,2.44-5.16,3.21-7.28.05-.16.11-.3.18-.43.09-.17.17-.36.25-.57s.4-1,.96-2.38c.23-.56.41-1.03.55-1.43.56-1.59.9-2.5.99-2.73.19-.08.35-.12.49-.12.16,0,.36.01.61.04.56.03,1.46.04,2.72.04.78,0,1.41,0,1.91-.03.02.11.03.19.03.24,0,.07-.01.16-.04.28-.32.17-.7.26-1.15.28-.88.05-1.44.12-1.68.21s-.39.2-.45.34c-.07.14-.12.6-.17,1.37l.02.69-.02.71c0,1.49.04,3.99.12,7.5v2.92s0,1.88,0,1.88c0,.74.04,1.17.1,1.3.07.13.27.26.6.38.54.18,1.41.36,2.62.55.07.05.1.12.1.19,0,.09,0,.19-.02.3h-.69c-.59,0-1.22-.02-1.91-.05-.69-.04-1.05-.05-1.1-.05-2.04,0-3.39.02-4.06.07-.41.03-.67.05-.78.05-.07,0-.14-.02-.22-.06v-.19c0-.09.01-.18.04-.28.33-.14.77-.23,1.34-.28.63-.17,1.08-.35,1.37-.54.09-.38.13-1.15.13-2.31l-.04-3.01c0-.33.02-.94.05-1.83.03-.89.05-2.35.05-4.37,0-1.6-.04-2.81-.12-3.64-.17.35-.5,1.1-.99,2.26l-.22.57-.03.09-2.2,5.21-.79,2.01-1.02,2.44c-.45,1.12-.83,2.11-1.14,2.98-.14.4-.25.71-.34.94l-.35-.02c-1.12-3.28-2.46-6.64-4.02-10.08-1.56-3.44-2.65-5.72-3.27-6.82-.08.43-.17,1.67-.28,3.72-.13,2.5-.2,5.26-.2,8.26,0,.94.07,2,.21,3.18.04.34.18.59.43.75.25.16.89.25,1.92.27.4,0,.77.03,1.13.09.07.15.1.26.1.34,0,.05-.02.14-.07.26l-4.62-.16c-.34,0-.86.02-1.58.07-.4.03-.97.04-1.71.05v-.4Z"/>
  <path class="cls-1" d="M172.55,22.69c.06.13.09.22.09.28,0,.15-.12.41-.36.79-.31.5-.65.86-1.03,1.09-.24.15-.57.22-.98.22-.71,0-1.25-.22-1.61-.65-.22-.26-.37-.72-.46-1.38l-1.67,1.16c-.59.34-1.03.55-1.34.64-.5.13-1.09.19-1.79.19-.51,0-.91-.15-1.2-.45s-.44-.69-.44-1.17c0-.68.42-1.5,1.26-2.46s1.98-1.73,3.42-2.34c1.02-.43,1.64-.7,1.87-.82.02-.33.03-.69.03-1.07,0-1.26-.18-2.11-.53-2.56s-.86-.67-1.52-.67-1.33.27-1.93.8c-.37.34-.65.97-.84,1.91-.06.26-.17.54-.34.83-.43.28-.77.42-1.03.42-.22,0-.42-.06-.6-.19-.1-.07-.15-.15-.15-.24,0-.26.28-.84.83-1.75.55-.91,1.25-1.59,2.08-2.04.84-.45,1.57-.68,2.2-.68.85,0,1.49.08,1.91.23.42.15.78.42,1.1.81.32.39.51.81.58,1.27.04.22.06,1,.06,2.34l-.04,2.37v1.73c.01.23,0,.42,0,.58,0,.29-.01.5-.01.64,0,.33.09.59.28.79.19.2.41.3.67.3.38,0,.7-.19.97-.57l.18-.24s.16-.06.33-.11ZM168.18,22.26c.07-1.26.1-2.15.1-2.67,0-.27-.01-.63-.04-1.09-.67.24-1.38.6-2.12,1.09s-1.34,1.05-1.78,1.68c-.32.46-.48.89-.48,1.29s.13.71.4.97.59.39.99.39c.31,0,.68-.11,1.12-.33.58-.29,1.18-.74,1.81-1.34Z"/>
  <path class="cls-1" d="M173.63,24.71l-.03-.43c.08-.06.15-.1.22-.11.07-.01.32-.04.75-.07.43-.03.7-.13.81-.29.11-.16.16-.84.16-2.03l.03-5.88-.03-1.04c0-.09,0-.42.03-1,.02-.27.03-.59.03-.97l-.06-2.59v-2.26c.01-.55-.06-.9-.22-1.05-.15-.15-.7-.29-1.63-.42v-.18c0-.06,0-.14.01-.25.57-.12,1.07-.27,1.5-.45.23-.1.81-.41,1.74-.92h.46c0,.23-.01.37-.01.42v1.94s.03,1.18.03,1.18v1.77s0,2.95,0,2.95l-.04,3.66v1.13c0,.14,0,.33.01.58h.16c.34.01.68-.11,1.03-.36,1.56-1.11,2.54-1.87,2.93-2.27.4-.4.6-.69.6-.87,0-.11-.07-.25-.19-.42-.3-.16-.63-.27-1-.33-.11-.02-.23-.04-.36-.07-.18-.05-.33-.08-.45-.1l-.03-.15c0-.07.02-.17.07-.3,1.57-.06,2.93-.09,4.09-.09.66,0,1.36.01,2.1.04v.19c0,.07-.03.16-.08.27-.15.03-.38.07-.7.13-.62.1-1.08.24-1.4.42-.76.41-1.55.98-2.37,1.71-.49.44-.91.81-1.27,1.1l-.54.46c.04.07.1.15.19.25.04.04.12.13.24.27.12.14.33.37.64.7,1.07,1.13,1.87,2.01,2.38,2.62.17.2.36.42.57.65.77.86,1.23,1.35,1.35,1.45.28.18.69.32,1.24.42.26.05.48.1.67.13.04.12.06.21.06.28v.15c-.72-.06-1.23-.09-1.53-.09h-.27l-4.14.12c-.16.02-.27.03-.33.03-.1,0-.2-.02-.31-.06-.03-.08-.04-.15-.04-.21v-.1c.06-.09.11-.14.16-.16.98-.08,1.55-.14,1.71-.19.09-.02.17-.07.25-.16,0-.17-.14-.44-.43-.82-.29-.38-1-1.21-2.15-2.49-.73-.81-1.21-1.29-1.42-1.42-.21-.13-.51-.2-.89-.2h-.57c-.04.36-.06,1.17-.06,2.45,0,1.19.1,1.95.3,2.29.11.19.37.31.77.36.41.05.67.12.79.22.08.06.13.2.15.42-.6,0-1.1-.02-1.5-.02-.66,0-1.37.02-2.14.04-.47.02-.83.03-1.1.03-.2,0-.53,0-.98-.01Z"/>
  <path class="cls-1" d="M187.99,14.15v-.44c.66-.19,1.01-.3,1.06-.33.36-.16.73-.4,1.12-.73.39-.33.72-.7.99-1.11.12-.02.21-.03.28-.03h.18c.04.49.06.84.06,1.06,0,.05,0,.27-.03.67v.79l.02,4.29-.04,4.54c0,.37.05.62.18.77.13.14.51.3,1.15.48.4.11.69.2.89.28.03.07.04.13.04.18,0,.06-.03.13-.08.22-.39,0-.88-.03-1.49-.07-.82-.07-1.37-.1-1.64-.1-.13,0-.92.03-2.38.07-.3,0-.59.04-.86.07-.05,0-.13-.01-.24-.04-.05-.07-.07-.13-.07-.18,0-.14.09-.25.28-.33.04-.02.55-.13,1.52-.34.32-.06.53-.16.62-.3.17-.21.25-.54.25-1,.02-.76.03-2.85.03-6.27,0-.68-.03-1.11-.09-1.28-.05-.12-.18-.25-.4-.41-.21-.15-.67-.31-1.36-.47ZM189.24,6.42c0-.33.13-.61.38-.85s.56-.36.92-.36.69.13.97.4c.28.27.42.56.42.86s-.14.6-.42.87c-.28.27-.6.41-.97.41s-.68-.12-.92-.37-.37-.57-.37-.97Z"/>
  <path class="cls-1" d="M194.67,24.23c.25-.07.54-.13.86-.18.63-.09,1-.19,1.12-.31s.19-.39.19-.82l.03-.54c0-.2.01-.45.01-.76l-.03-4.56c0-.61-.08-1.01-.24-1.19-.27-.28-.76-.47-1.49-.58v-.54c.72-.2,1.28-.46,1.67-.78.57-.45,1.04-1.06,1.43-1.82h.51c.03.48.04.82.04,1.02v.99l.02.27c.12-.08.26-.18.42-.3.6-.45,1.21-.81,1.83-1.1.63-.28,1.18-.48,1.67-.59.31-.08.66-.12,1.04-.12.81,0,1.51.22,2.1.66.59.44.97.95,1.14,1.54.17.59.26,1.77.26,3.53v2.25c0,.06,0,.26-.02.6s-.02.73-.02,1.16c0,.7.03,1.14.09,1.33.05.13.18.26.39.39.95.13,1.51.28,1.67.46v.12c0,.1-.03.22-.09.37h-.28l-1.97-.03-1.94.04c-.71.02-1.38.01-1.98-.01l-.09-.31c0-.06.03-.14.1-.24.27-.12.64-.2,1.13-.24.29-.02.49-.05.6-.09.11-.04.24-.12.4-.24.12-.24.18-.44.18-.6,0-.07,0-.21-.03-.42-.03-.46-.05-1.6-.06-3.42v-.78l.03-1.19c0-1.28-.26-2.17-.77-2.65-.52-.49-1.21-.73-2.07-.73-.67,0-1.32.15-1.95.44-.64.29-1.25.73-1.85,1.32-.02.48-.03.88-.03,1.22l.04,3.29c0,1.72.02,2.77.07,3.16.02.16.05.27.1.33.08.08.24.14.48.19s.51.12.83.21c.31.09.52.14.62.16.2.05.33.15.4.3v.3h-1.58l-3.22-.04c-.74,0-1.22.01-1.41.01h-.37l-.03-.19c0-.07.01-.17.04-.3Z"/>
  <path class="cls-1" d="M213.69,25.7c-.12-.06-.5-.22-1.15-.49-.75-.49-1.23-.85-1.43-1.09-.2-.24-.3-.5-.3-.79,0-.26.08-.47.22-.62.22-.23.65-.45,1.3-.66.64-.21,1.18-.41,1.59-.61-.13-.09-.33-.22-.61-.39-1.48-.91-2.22-2.18-2.22-3.8,0-1.33.47-2.45,1.41-3.37.94-.92,2.14-1.38,3.61-1.38.67,0,1.28.09,1.83.28.32.1.79.35,1.41.74.4.25.63.39.7.42.16.05.34.07.54.07.17,0,.58-.04,1.23-.13s1.04-.13,1.15-.13c.23,0,.42.04.57.13.12.2.18.53.18,1,0,.16-.04.28-.13.36-.08.08-.21.12-.36.12-.28,0-.74-.09-1.38-.26-.64-.17-1.03-.26-1.17-.26-.05,0-.14,0-.28.03.43.85.64,1.63.64,2.34s-.22,1.44-.67,2.19c-.45.75-1.06,1.33-1.85,1.73s-1.58.6-2.38.6c-.06,0-.23,0-.51-.01-.91,0-1.75.23-2.52.68-.37.23-.55.44-.55.64,0,.21.18.41.54.61.94.51,2.73.8,5.36.88,1.14.04,2.03.2,2.67.49.63.29,1.11.71,1.44,1.27s.48,1.14.48,1.74c0,.8-.27,1.55-.82,2.23-.55.69-1.38,1.24-2.49,1.67-1.11.43-2.39.64-3.83.64-1.59,0-2.81-.19-3.68-.58-.86-.39-1.48-.81-1.84-1.27s-.54-.91-.54-1.35c0-.39.2-.87.6-1.45.4-.58,1.22-1.19,2.47-1.82.37-.19.62-.32.76-.4ZM212.6,30.99c.9.7,2.04,1.04,3.42,1.04.98,0,1.96-.16,2.94-.47.98-.31,1.69-.76,2.14-1.34.45-.58.68-1.13.68-1.65,0-.32-.08-.63-.24-.95-.16-.31-.38-.57-.65-.78-.27-.2-.63-.36-1.08-.48-.32-.09-.77-.15-1.36-.19-1.67-.13-2.69-.19-3.07-.19-1.06,0-2.01.36-2.84,1.07-.64.56-.97,1.22-.97,2,0,.71.34,1.36,1.01,1.94ZM213.09,17.2c0,.89.13,1.64.4,2.24.27.6.64,1.05,1.1,1.34.47.29.94.44,1.41.44.86,0,1.58-.33,2.15-.99.57-.66.86-1.67.86-3.02s-.3-2.4-.89-3.1c-.6-.71-1.32-1.06-2.16-1.06-.94,0-1.66.34-2.14,1.01-.49.68-.73,1.72-.73,3.14Z"/>
  <path class="cls-1" d="M242.79,6.34c.08.66.12,1.03.12,1.13l-.06,1.33c-.02.57-.04.93-.07,1.09-.09.04-.16.06-.22.06l-.13-.03c-.32-1.39-.86-2.4-1.62-3.04-.76-.64-1.69-.95-2.78-.95s-2.06.32-2.79.95c-.72.64-1.09,1.38-1.09,2.22,0,.65.25,1.24.76,1.77.51.54,1.8,1.34,3.89,2.41,1.59.82,2.72,1.49,3.41,2.01.68.52,1.2,1.13,1.55,1.81.35.69.52,1.45.52,2.3,0,1.06-.28,2.06-.83,3s-1.29,1.64-2.23,2.11c-.93.47-2.17.71-3.71.71-1.34,0-2.63-.21-3.86-.64-.72-.26-1.17-.47-1.33-.62s-.24-.33-.24-.51c0-.11,0-.25.03-.42.14-1.17.21-2.13.22-2.89.02-.47.05-.74.1-.82.04-.07.11-.1.22-.1.09,0,.16.03.22.1.05.06.09.19.11.36.11,1.22.67,2.31,1.7,3.28,1.01.96,2.16,1.44,3.44,1.44.78,0,1.51-.16,2.17-.49.66-.33,1.18-.8,1.55-1.42.37-.62.56-1.22.56-1.81,0-.8-.28-1.54-.85-2.2-.57-.67-1.7-1.44-3.41-2.33-1.71-.89-2.82-1.54-3.34-1.94-.83-.67-1.46-1.37-1.88-2.11-.31-.58-.46-1.25-.46-2.01,0-1.38.55-2.55,1.64-3.51,1.09-.96,2.56-1.44,4.39-1.44,1.01,0,1.89.11,2.62.34.54.18,1.09.47,1.65.88Z"/>
  <path class="cls-1" d="M257.35,16.86l-5.97.04h-1.13c-.46,0-.92.02-1.4.06-.09.3-.13.5-.13.61l.02.15v.15l-.02.73c0,.61.19,1.35.57,2.23.38.88.93,1.55,1.64,2.01.71.46,1.6.71,2.66.74.57-.03,1.02-.1,1.35-.21.34-.11.81-.36,1.43-.76l1.07-.88.09.6c0,.07,0,.14-.02.22-.45.57-1.01,1.06-1.7,1.49-.68.43-1.38.74-2.08.94-.34.09-.89.13-1.67.13-.7,0-1.4-.14-2.08-.43-1.01-.44-1.81-1.14-2.39-2.11s-.87-2.14-.87-3.52c0-.44.08-1,.25-1.68.16-.69.46-1.41.89-2.19.29-.53.64-.96,1.06-1.3.6-.48,1.12-.81,1.56-1,.65-.27,1.39-.4,2.25-.4.92,0,1.68.17,2.26.51.79.45,1.39,1.02,1.78,1.73.39.71.59,1.35.59,1.94v.21ZM249.04,16.32h.7c.51,0,2.01-.08,4.53-.24.4-.02.64-.06.73-.12.18-.19.27-.36.27-.51,0-.31-.1-.66-.3-1.05-.2-.39-.5-.69-.92-.91-.41-.21-.89-.32-1.44-.32-1.15,0-2.08.43-2.77,1.3-.54.66-.8,1.27-.8,1.85Z"/>
  <path class="cls-1" d="M258.87,24.76l-.06-.19c0-.07.04-.17.13-.31l.88-.18,1.24-.22c.1-.05.17-.12.21-.21.06-.13.09-.51.09-1.14,0-3.37-.02-5.32-.06-5.84-.04-.52-.13-.85-.27-.99s-.5-.25-1.07-.33c-.34-.05-.61-.11-.8-.19l.06-.45c1.04-.43,1.74-.8,2.1-1.1.5-.45.92-1.04,1.27-1.76h.51c.06.51.09,1.61.09,3.32v.25c-.01.06,0,.15.01.28.38-.69.85-1.32,1.42-1.89l.34-.34c.14-.16.27-.28.4-.37.7-.42,1.21-.63,1.55-.63.44,0,.79.15,1.07.44.28.29.42.65.42,1.08,0,.34-.1.6-.3.79-.27.25-.58.37-.92.37-.16,0-.47-.08-.94-.25s-.77-.25-.92-.25c-.28,0-.47.04-.58.13-.28.22-.62.67-1.01,1.34-.31.51-.46.97-.46,1.4l.07,2.46.03,2.96c.03.34.07.56.12.66.04.07.14.15.3.25,1.07.09,1.71.15,1.91.19.14.01.24.02.31.03.43.01.72.07.89.18.09.05.13.12.13.22,0,.06-.04.14-.12.24l-1.65-.03h-.62s-.91,0-.91,0h-1.52l-.82.04-2.5.04Z"/>
  <path class="cls-1" d="M268.27,12.88c1.1.01,2.06.05,2.89.12.59,0,1.01,0,1.28-.03.19,0,.31-.02.36-.02l1.67.02c.23.04.41.06.55.07.06.02.11.07.16.16,0,.1-.03.2-.09.31-.17.05-.34.08-.52.09-.74.08-1.37.19-1.88.34-.07.05-.1.1-.1.15,0,.1.05.25.15.46.02.05.06.17.13.36l1.49,3.58c.67,1.64,1.28,3.02,1.85,4.14.39-.74.74-1.5,1.07-2.28s.81-2.02,1.44-3.71c.18-.48.35-1.07.51-1.77.03-.14.04-.26.04-.36,0-.12-.07-.25-.2-.39-.13-.14-.36-.26-.68-.35-.07,0-.52-.08-1.36-.22-.07-.04-.13-.09-.19-.16v-.12s0-.11.02-.19c.24-.03.41-.04.52-.04h1.76c.12.01.4,0,.85-.03,1.58,0,2.53.01,2.84.04.06.02.11.08.16.18,0,.09-.03.19-.09.3l-.46.12c-.12,0-.21.02-.28.03-.85.08-1.38.2-1.58.36-.15.11-.38.62-.7,1.52-.15.45-.37,1.01-.65,1.7l-.77,1.88c-.11.27-.23.56-.36.88l-2.3,5.34h-.46c-.09-.24-.2-.49-.33-.75l-1.13-2.4-2.66-6.25c-.54-1.21-.86-1.87-.97-1.97-.11-.1-.75-.31-1.91-.63-.06-.16-.09-.27-.09-.34v-.13Z"/>
  <path class="cls-1" d="M283.59,14.15v-.44c.66-.19,1.01-.3,1.06-.33.36-.16.73-.4,1.12-.73.39-.33.72-.7.99-1.11.12-.02.21-.03.28-.03h.18c.04.49.06.84.06,1.06,0,.05,0,.27-.03.67v5.08s-.03,4.54-.03,4.54c0,.37.05.62.18.77.13.14.51.3,1.15.48.4.11.7.2.89.28.03.07.04.13.04.18,0,.06-.02.13-.07.22-.39,0-.88-.03-1.49-.07-.82-.07-1.37-.1-1.64-.1-.13,0-.92.03-2.38.07-.3,0-.59.04-.86.07-.05,0-.13-.01-.24-.04-.05-.07-.07-.13-.07-.18,0-.14.09-.25.28-.33.04-.02.55-.13,1.52-.34.32-.06.53-.16.63-.3.17-.21.25-.54.25-1,.02-.76.03-2.85.03-6.27,0-.68-.03-1.11-.09-1.28-.05-.12-.18-.25-.39-.41-.21-.15-.67-.31-1.36-.47ZM284.84,6.42c0-.33.13-.61.38-.85.25-.24.56-.36.92-.36s.69.13.97.4c.28.27.42.56.42.86s-.14.6-.42.87c-.28.27-.6.41-.97.41s-.67-.12-.92-.37-.37-.57-.37-.97Z"/>
  <path class="cls-1" d="M301.61,21.99l.02.97c-.77.82-1.54,1.4-2.29,1.73-.75.33-1.64.49-2.67.49-1.11,0-2.11-.29-3.01-.87s-1.58-1.4-2.06-2.46-.72-2.11-.72-3.13c0-1.12.29-2.18.87-3.18.58-1,1.35-1.74,2.31-2.23.96-.49,2.16-.74,3.61-.74s2.45.24,3.17.71c.41.28.61.64.61,1.07,0,.32-.1.58-.31.79-.21.21-.48.31-.8.31-.5,0-1.04-.31-1.64-.92-.37-.38-.7-.64-1-.78s-.63-.22-1-.22c-.88,0-1.62.36-2.2,1.09-.81,1.03-1.22,2.33-1.22,3.89s.42,2.89,1.25,3.84,1.81,1.43,2.92,1.43c.77,0,1.46-.13,2.06-.38s1.3-.72,2.11-1.41Z"/>
  <path class="cls-1" d="M314.21,16.86l-5.97.04h-1.13c-.46,0-.92.02-1.4.06-.09.3-.13.5-.13.61l.02.15v.15l-.02.73c0,.61.19,1.35.57,2.23.38.88.93,1.55,1.64,2.01.71.46,1.6.71,2.66.74.57-.03,1.02-.1,1.35-.21.34-.11.81-.36,1.43-.76l1.07-.88.09.6c0,.07,0,.14-.02.22-.45.57-1.01,1.06-1.7,1.49-.68.43-1.38.74-2.08.94-.34.09-.89.13-1.67.13-.7,0-1.4-.14-2.08-.43-1.01-.44-1.81-1.14-2.39-2.11s-.87-2.14-.87-3.52c0-.44.08-1,.25-1.68.16-.69.46-1.41.89-2.19.29-.53.64-.96,1.06-1.3.6-.48,1.12-.81,1.56-1,.65-.27,1.39-.4,2.25-.4.92,0,1.68.17,2.26.51.79.45,1.39,1.02,1.78,1.73.39.71.59,1.35.59,1.94v.21ZM305.9,16.32h.7c.51,0,2.01-.08,4.53-.24.4-.02.64-.06.73-.12.18-.19.27-.36.27-.51,0-.31-.1-.66-.3-1.05-.2-.39-.5-.69-.92-.91-.41-.21-.89-.32-1.44-.32-1.15,0-2.08.43-2.77,1.3-.54.66-.8,1.27-.8,1.85Z"/>
</svg>